<?xml version="1.0" encoding="UTF-8" standalone="no"?>
<!DOCTYPE svg PUBLIC "-//W3C//DTD SVG 1.1//EN"
 "http://www.w3.org/Graphics/SVG/1.1/DTD/svg11.dtd">
<!-- Generated by graphviz version 2.40.1 (20161225.0304)
 -->
<!-- Title: dependencies Pages: 1 -->
<svg width="679pt" height="284pt"
 viewBox="0.00 0.00 679.00 284.00" xmlns="http://www.w3.org/2000/svg" xmlns:xlink="http://www.w3.org/1999/xlink">
<g id="graph0" class="graph" transform="scale(1 1) rotate(0) translate(4 280)">
<title>dependencies</title>
<polygon fill="#ffffff" stroke="transparent" points="-4,4 -4,-280 675,-280 675,4 -4,4"/>
<text text-anchor="start" x="314.5091" y="-42.4" font-family="sans-serif" font-weight="bold" font-size="14.00" fill="#000000">Legend</text>
<polygon fill="#ffffb3" stroke="transparent" points="101.5,-10 101.5,-30 121.5,-30 121.5,-10 101.5,-10"/>
<text text-anchor="start" x="125.129" y="-15.4" font-family="sans-serif" font-size="14.00" fill="#000000"> &#160;Declarations</text>
<polygon fill="#8dd3c7" stroke="transparent" points="214.5,-10 214.5,-30 234.5,-30 234.5,-10 214.5,-10"/>
<text text-anchor="start" x="238.2251" y="-15.4" font-family="sans-serif" font-size="14.00" fill="#000000"> &#160;Module</text>
<polygon fill="#80b1d3" stroke="transparent" points="300.5,-10 300.5,-30 320.5,-30 320.5,-10 300.5,-10"/>
<text text-anchor="start" x="324.2812" y="-15.4" font-family="sans-serif" font-size="14.00" fill="#000000"> &#160;Bootstrap</text>
<polygon fill="#fdb462" stroke="transparent" points="397.5,-10 397.5,-30 417.5,-30 417.5,-10 397.5,-10"/>
<text text-anchor="start" x="421.1732" y="-15.4" font-family="sans-serif" font-size="14.00" fill="#000000"> &#160;Providers</text>
<polygon fill="#fb8072" stroke="transparent" points="493.5,-10 493.5,-30 513.5,-30 513.5,-10 493.5,-10"/>
<text text-anchor="start" x="517.2258" y="-15.4" font-family="sans-serif" font-size="14.00" fill="#000000"> &#160;Exports</text>
<g id="clust1" class="cluster">
<title>cluster_SharedModule</title>
<polygon fill="none" stroke="#000000" stroke-dasharray="1,5" points="8,-70 8,-268 663,-268 663,-70 8,-70"/>
</g>
<g id="clust2" class="cluster">
<title>cluster_SharedModule_declarations</title>
<polygon fill="none" stroke="#000000" points="25,-78 25,-130 646,-130 646,-78 25,-78"/>
</g>
<g id="clust9" class="cluster">
<title>cluster_SharedModule_exports</title>
<polygon fill="none" stroke="#000000" points="16,-208 16,-260 655,-260 655,-208 16,-208"/>
</g>
<!-- AppFormComponent -->
<g id="node1" class="node">
<title>AppFormComponent</title>
<polygon fill="#ffffb3" stroke="#000000" points="637.773,-122 502.227,-122 502.227,-86 637.773,-86 637.773,-122"/>
<text text-anchor="middle" x="570" y="-99.8" font-family="Times,serif" font-size="14.00" fill="#000000">AppFormComponent</text>
</g>
<!-- SharedModule -->
<g id="node6" class="node">
<title>SharedModule</title>
<polygon fill="#8dd3c7" stroke="#000000" points="392.4231,-187 389.4231,-191 368.4231,-191 365.4231,-187 293.5769,-187 293.5769,-151 392.4231,-151 392.4231,-187"/>
<text text-anchor="middle" x="343" y="-164.8" font-family="Times,serif" font-size="14.00" fill="#000000">SharedModule</text>
</g>
<!-- AppFormComponent&#45;&gt;SharedModule -->
<g id="edge1" class="edge">
<title>AppFormComponent&#45;&gt;SharedModule</title>
<path fill="none" stroke="#000000" d="M594.3788,-122.2667C594.3788,-140.5552 594.3788,-166 594.3788,-166 594.3788,-166 402.3644,-166 402.3644,-166"/>
<polygon fill="#000000" stroke="#000000" points="402.3645,-162.5001 392.3644,-166 402.3644,-169.5001 402.3645,-162.5001"/>
</g>
<!-- FilterPipe -->
<g id="node2" class="node">
<title>FilterPipe</title>
<polygon fill="#ffffb3" stroke="#000000" points="484.7177,-122 413.2823,-122 413.2823,-86 484.7177,-86 484.7177,-122"/>
<text text-anchor="middle" x="449" y="-99.8" font-family="Times,serif" font-size="14.00" fill="#000000">FilterPipe</text>
</g>
<!-- FilterPipe&#45;&gt;SharedModule -->
<g id="edge2" class="edge">
<title>FilterPipe&#45;&gt;SharedModule</title>
<path fill="none" stroke="#000000" d="M461.2862,-122.0091C461.2862,-138.0494 461.2862,-159 461.2862,-159 461.2862,-159 402.4786,-159 402.4786,-159"/>
<polygon fill="#000000" stroke="#000000" points="402.4787,-155.5001 392.4786,-159 402.4786,-162.5001 402.4787,-155.5001"/>
</g>
<!-- NavComponent -->
<g id="node3" class="node">
<title>NavComponent</title>
<polygon fill="#ffffb3" stroke="#000000" points="395.1542,-122 290.8458,-122 290.8458,-86 395.1542,-86 395.1542,-122"/>
<text text-anchor="middle" x="343" y="-99.8" font-family="Times,serif" font-size="14.00" fill="#000000">NavComponent</text>
</g>
<!-- NavComponent&#45;&gt;SharedModule -->
<g id="edge3" class="edge">
<title>NavComponent&#45;&gt;SharedModule</title>
<path fill="none" stroke="#000000" d="M343,-122.1061C343,-122.1061 343,-140.991 343,-140.991"/>
<polygon fill="#000000" stroke="#000000" points="339.5001,-140.9909 343,-150.991 346.5001,-140.991 339.5001,-140.9909"/>
</g>
<!-- RefCommandePipe -->
<g id="node4" class="node">
<title>RefCommandePipe</title>
<polygon fill="#ffffb3" stroke="#000000" points="272.6471,-122 147.3529,-122 147.3529,-86 272.6471,-86 272.6471,-122"/>
<text text-anchor="middle" x="210" y="-99.8" font-family="Times,serif" font-size="14.00" fill="#000000">RefCommandePipe</text>
</g>
<!-- RefCommandePipe&#45;&gt;SharedModule -->
<g id="edge4" class="edge">
<title>RefCommandePipe&#45;&gt;SharedModule</title>
<path fill="none" stroke="#000000" d="M229.4411,-122.0091C229.4411,-138.0494 229.4411,-159 229.4411,-159 229.4411,-159 283.5218,-159 283.5218,-159"/>
<polygon fill="#000000" stroke="#000000" points="283.5218,-162.5001 293.5218,-159 283.5217,-155.5001 283.5218,-162.5001"/>
</g>
<!-- StateDirective -->
<g id="node5" class="node">
<title>StateDirective</title>
<polygon fill="#ffffb3" stroke="#000000" points="129.0758,-122 32.9242,-122 32.9242,-86 129.0758,-86 129.0758,-122"/>
<text text-anchor="middle" x="81" y="-99.8" font-family="Times,serif" font-size="14.00" fill="#000000">StateDirective</text>
</g>
<!-- StateDirective&#45;&gt;SharedModule -->
<g id="edge5" class="edge">
<title>StateDirective&#45;&gt;SharedModule</title>
<path fill="none" stroke="#000000" d="M93.5126,-122.2667C93.5126,-140.5552 93.5126,-166 93.5126,-166 93.5126,-166 283.7093,-166 283.7093,-166"/>
<polygon fill="#000000" stroke="#000000" points="283.7094,-169.5001 293.7093,-166 283.7093,-162.5001 283.7094,-169.5001"/>
</g>
<!-- AppFormComponent  -->
<g id="node7" class="node">
<title>AppFormComponent </title>
<polygon fill="#fb8072" stroke="#000000" points="646.7731,-252 507.2269,-252 507.2269,-216 646.7731,-216 646.7731,-252"/>
<text text-anchor="middle" x="577" y="-229.8" font-family="Times,serif" font-size="14.00" fill="#000000">AppFormComponent </text>
</g>
<!-- SharedModule&#45;&gt;AppFormComponent  -->
<g id="edge6" class="edge">
<title>SharedModule&#45;&gt;AppFormComponent </title>
<path fill="none" stroke="#000000" stroke-dasharray="5,2" d="M392.2626,-173C453.7329,-173 550.8712,-173 550.8712,-173 550.8712,-173 550.8712,-205.698 550.8712,-205.698"/>
<polygon fill="#000000" stroke="#000000" points="547.3713,-205.698 550.8712,-215.698 554.3713,-205.698 547.3713,-205.698"/>
</g>
<!-- FilterPipe  -->
<g id="node8" class="node">
<title>FilterPipe </title>
<polygon fill="#fb8072" stroke="#000000" points="489.2179,-252 414.7821,-252 414.7821,-216 489.2179,-216 489.2179,-252"/>
<text text-anchor="middle" x="452" y="-229.8" font-family="Times,serif" font-size="14.00" fill="#000000">FilterPipe </text>
</g>
<!-- SharedModule&#45;&gt;FilterPipe  -->
<g id="edge7" class="edge">
<title>SharedModule&#45;&gt;FilterPipe </title>
<path fill="none" stroke="#000000" stroke-dasharray="5,2" d="M392.4289,-180C415.5034,-180 437.9638,-180 437.9638,-180 437.9638,-180 437.9638,-205.7181 437.9638,-205.7181"/>
<polygon fill="#000000" stroke="#000000" points="434.4639,-205.718 437.9638,-215.7181 441.4639,-205.7181 434.4639,-205.718"/>
</g>
<!-- NavComponent  -->
<g id="node9" class="node">
<title>NavComponent </title>
<polygon fill="#fb8072" stroke="#000000" points="397.1537,-252 288.8463,-252 288.8463,-216 397.1537,-216 397.1537,-252"/>
<text text-anchor="middle" x="343" y="-229.8" font-family="Times,serif" font-size="14.00" fill="#000000">NavComponent </text>
</g>
<!-- SharedModule&#45;&gt;NavComponent  -->
<g id="edge8" class="edge">
<title>SharedModule&#45;&gt;NavComponent </title>
<path fill="none" stroke="#000000" stroke-dasharray="5,2" d="M343,-187.1061C343,-187.1061 343,-205.991 343,-205.991"/>
<polygon fill="#000000" stroke="#000000" points="339.5001,-205.9909 343,-215.991 346.5001,-205.991 339.5001,-205.9909"/>
</g>
<!-- RefCommandePipe  -->
<g id="node10" class="node">
<title>RefCommandePipe </title>
<polygon fill="#fb8072" stroke="#000000" points="270.6467,-252 141.3533,-252 141.3533,-216 270.6467,-216 270.6467,-252"/>
<text text-anchor="middle" x="206" y="-229.8" font-family="Times,serif" font-size="14.00" fill="#000000">RefCommandePipe </text>
</g>
<!-- SharedModule&#45;&gt;RefCommandePipe  -->
<g id="edge9" class="edge">
<title>SharedModule&#45;&gt;RefCommandePipe </title>
<path fill="none" stroke="#000000" stroke-dasharray="5,2" d="M293.6295,-180C248.358,-180 188.3089,-180 188.3089,-180 188.3089,-180 188.3089,-205.7181 188.3089,-205.7181"/>
<polygon fill="#000000" stroke="#000000" points="184.809,-205.718 188.3089,-215.7181 191.809,-205.7181 184.809,-205.718"/>
</g>
<!-- StateDirective  -->
<g id="node11" class="node">
<title>StateDirective </title>
<polygon fill="#fb8072" stroke="#000000" points="123.5767,-252 24.4233,-252 24.4233,-216 123.5767,-216 123.5767,-252"/>
<text text-anchor="middle" x="74" y="-229.8" font-family="Times,serif" font-size="14.00" fill="#000000">StateDirective </text>
</g>
<!-- SharedModule&#45;&gt;StateDirective  -->
<g id="edge10" class="edge">
<title>SharedModule&#45;&gt;StateDirective </title>
<path fill="none" stroke="#000000" stroke-dasharray="5,2" d="M293.628,-173C213.3137,-173 63.2374,-173 63.2374,-173 63.2374,-173 63.2374,-205.698 63.2374,-205.698"/>
<polygon fill="#000000" stroke="#000000" points="59.7375,-205.698 63.2374,-215.698 66.7375,-205.698 59.7375,-205.698"/>
</g>
</g>
</svg>
