<?xml version="1.0" encoding="UTF-8" standalone="no"?>
<!DOCTYPE svg PUBLIC "-//W3C//DTD SVG 1.1//EN"
 "http://www.w3.org/Graphics/SVG/1.1/DTD/svg11.dtd">
<!-- Generated by graphviz version 2.40.1 (20161225.0304)
 -->
<!-- Title: dependencies Pages: 1 -->
<svg width="917pt" height="284pt"
 viewBox="0.00 0.00 917.00 284.00" xmlns="http://www.w3.org/2000/svg" xmlns:xlink="http://www.w3.org/1999/xlink">
<g id="graph0" class="graph" transform="scale(1 1) rotate(0) translate(4 280)">
<title>dependencies</title>
<polygon fill="#ffffff" stroke="transparent" points="-4,4 -4,-280 913,-280 913,4 -4,4"/>
<text text-anchor="start" x="433.5091" y="-42.4" font-family="sans-serif" font-weight="bold" font-size="14.00" fill="#000000">Legend</text>
<polygon fill="#ffffb3" stroke="transparent" points="220.5,-10 220.5,-30 240.5,-30 240.5,-10 220.5,-10"/>
<text text-anchor="start" x="244.129" y="-15.4" font-family="sans-serif" font-size="14.00" fill="#000000"> &#160;Declarations</text>
<polygon fill="#8dd3c7" stroke="transparent" points="333.5,-10 333.5,-30 353.5,-30 353.5,-10 333.5,-10"/>
<text text-anchor="start" x="357.2251" y="-15.4" font-family="sans-serif" font-size="14.00" fill="#000000"> &#160;Module</text>
<polygon fill="#80b1d3" stroke="transparent" points="419.5,-10 419.5,-30 439.5,-30 439.5,-10 419.5,-10"/>
<text text-anchor="start" x="443.2812" y="-15.4" font-family="sans-serif" font-size="14.00" fill="#000000"> &#160;Bootstrap</text>
<polygon fill="#fdb462" stroke="transparent" points="516.5,-10 516.5,-30 536.5,-30 536.5,-10 516.5,-10"/>
<text text-anchor="start" x="540.1732" y="-15.4" font-family="sans-serif" font-size="14.00" fill="#000000"> &#160;Providers</text>
<polygon fill="#fb8072" stroke="transparent" points="612.5,-10 612.5,-30 632.5,-30 632.5,-10 612.5,-10"/>
<text text-anchor="start" x="636.2258" y="-15.4" font-family="sans-serif" font-size="14.00" fill="#000000"> &#160;Exports</text>
<g id="clust1" class="cluster">
<title>cluster_AppModule</title>
<polygon fill="none" stroke="#000000" stroke-dasharray="1,5" points="8,-70 8,-268 901,-268 901,-70 8,-70"/>
</g>
<g id="clust2" class="cluster">
<title>cluster_AppModule_declarations</title>
<polygon fill="none" stroke="#000000" points="771,-78 771,-130 893,-130 893,-78 771,-78"/>
</g>
<g id="clust4" class="cluster">
<title>cluster_AppModule_imports</title>
<polygon fill="none" stroke="#000000" points="16,-78 16,-130 763,-130 763,-78 16,-78"/>
</g>
<g id="clust6" class="cluster">
<title>cluster_AppModule_bootstrap</title>
<polygon fill="none" stroke="#000000" points="395,-208 395,-260 519,-260 519,-208 395,-208"/>
</g>
<!-- AppComponent -->
<g id="node1" class="node">
<title>AppComponent</title>
<polygon fill="#ffffb3" stroke="#000000" points="884.9399,-122 779.0601,-122 779.0601,-86 884.9399,-86 884.9399,-122"/>
<text text-anchor="middle" x="832" y="-99.8" font-family="Times,serif" font-size="14.00" fill="#000000">AppComponent</text>
</g>
<!-- AppModule -->
<g id="node2" class="node">
<title>AppModule</title>
<polygon fill="#8dd3c7" stroke="#000000" points="498.6571,-187 495.6571,-191 474.6571,-191 471.6571,-187 415.3429,-187 415.3429,-151 498.6571,-151 498.6571,-187"/>
<text text-anchor="middle" x="457" y="-164.8" font-family="Times,serif" font-size="14.00" fill="#000000">AppModule</text>
</g>
<!-- AppComponent&#45;&gt;AppModule -->
<g id="edge1" class="edge">
<title>AppComponent&#45;&gt;AppModule</title>
<path fill="none" stroke="#000000" d="M832,-122.2921C832,-144.2057 832,-178 832,-178 832,-178 508.9257,-178 508.9257,-178"/>
<polygon fill="#000000" stroke="#000000" points="508.9257,-174.5001 498.9257,-178 508.9257,-181.5001 508.9257,-174.5001"/>
</g>
<!-- AppComponent  -->
<g id="node9" class="node">
<title>AppComponent </title>
<polygon fill="#80b1d3" stroke="#000000" points="511.439,-252 402.561,-252 402.561,-216 511.439,-216 511.439,-252"/>
<text text-anchor="middle" x="457" y="-229.8" font-family="Times,serif" font-size="14.00" fill="#000000">AppComponent </text>
</g>
<!-- AppModule&#45;&gt;AppComponent  -->
<g id="edge8" class="edge">
<title>AppModule&#45;&gt;AppComponent </title>
<path fill="none" stroke="#000000" stroke-dasharray="1,5" d="M457,-187.1061C457,-187.1061 457,-205.991 457,-205.991"/>
<polygon fill="#000000" stroke="#000000" points="453.5001,-205.9909 457,-215.991 460.5001,-205.991 453.5001,-205.9909"/>
</g>
<!-- AppRoutingModule -->
<g id="node3" class="node">
<title>AppRoutingModule</title>
<polygon fill="#8dd3c7" stroke="#000000" points="755.2744,-122 752.2744,-126 731.2744,-126 728.2744,-122 626.7256,-122 626.7256,-86 755.2744,-86 755.2744,-122"/>
<text text-anchor="middle" x="691" y="-99.8" font-family="Times,serif" font-size="14.00" fill="#000000">AppRoutingModule</text>
</g>
<!-- AppRoutingModule&#45;&gt;AppModule -->
<g id="edge2" class="edge">
<title>AppRoutingModule&#45;&gt;AppModule</title>
<path fill="none" stroke="#000000" d="M691,-122.1061C691,-141.3391 691,-169 691,-169 691,-169 508.8345,-169 508.8345,-169"/>
<polygon fill="#000000" stroke="#000000" points="508.8345,-165.5001 498.8345,-169 508.8345,-172.5001 508.8345,-165.5001"/>
</g>
<!-- CoreModule -->
<g id="node4" class="node">
<title>CoreModule</title>
<polygon fill="#8dd3c7" stroke="#000000" points="608.2619,-122 605.2619,-126 584.2619,-126 581.2619,-122 521.7381,-122 521.7381,-86 608.2619,-86 608.2619,-122"/>
<text text-anchor="middle" x="565" y="-99.8" font-family="Times,serif" font-size="14.00" fill="#000000">CoreModule</text>
</g>
<!-- CoreModule&#45;&gt;AppModule -->
<g id="edge3" class="edge">
<title>CoreModule&#45;&gt;AppModule</title>
<path fill="none" stroke="#000000" d="M565,-122.027C565,-138.3976 565,-160 565,-160 565,-160 508.7556,-160 508.7556,-160"/>
<polygon fill="#000000" stroke="#000000" points="508.7557,-156.5001 498.7556,-160 508.7556,-163.5001 508.7557,-156.5001"/>
</g>
<!-- HomeModule -->
<g id="node5" class="node">
<title>HomeModule</title>
<polygon fill="#8dd3c7" stroke="#000000" points="503.7619,-122 500.7619,-126 479.7619,-126 476.7619,-122 410.2381,-122 410.2381,-86 503.7619,-86 503.7619,-122"/>
<text text-anchor="middle" x="457" y="-99.8" font-family="Times,serif" font-size="14.00" fill="#000000">HomeModule</text>
</g>
<!-- HomeModule&#45;&gt;AppModule -->
<g id="edge4" class="edge">
<title>HomeModule&#45;&gt;AppModule</title>
<path fill="none" stroke="#000000" d="M457,-122.1061C457,-122.1061 457,-140.991 457,-140.991"/>
<polygon fill="#000000" stroke="#000000" points="453.5001,-140.9909 457,-150.991 460.5001,-140.991 453.5001,-140.9909"/>
</g>
<!-- ItemsModule -->
<g id="node6" class="node">
<title>ItemsModule</title>
<polygon fill="#8dd3c7" stroke="#000000" points="392.1515,-122 389.1515,-126 368.1515,-126 365.1515,-122 301.8485,-122 301.8485,-86 392.1515,-86 392.1515,-122"/>
<text text-anchor="middle" x="347" y="-99.8" font-family="Times,serif" font-size="14.00" fill="#000000">ItemsModule</text>
</g>
<!-- ItemsModule&#45;&gt;AppModule -->
<g id="edge5" class="edge">
<title>ItemsModule&#45;&gt;AppModule</title>
<path fill="none" stroke="#000000" d="M347,-122.027C347,-138.3976 347,-160 347,-160 347,-160 405.0999,-160 405.0999,-160"/>
<polygon fill="#000000" stroke="#000000" points="405.1,-163.5001 415.0999,-160 405.0999,-156.5001 405.1,-163.5001"/>
</g>
<!-- PageNotFoundModule -->
<g id="node7" class="node">
<title>PageNotFoundModule</title>
<polygon fill="#8dd3c7" stroke="#000000" points="283.5421,-122 280.5421,-126 259.5421,-126 256.5421,-122 140.4579,-122 140.4579,-86 283.5421,-86 283.5421,-122"/>
<text text-anchor="middle" x="212" y="-99.8" font-family="Times,serif" font-size="14.00" fill="#000000">PageNotFoundModule</text>
</g>
<!-- PageNotFoundModule&#45;&gt;AppModule -->
<g id="edge6" class="edge">
<title>PageNotFoundModule&#45;&gt;AppModule</title>
<path fill="none" stroke="#000000" d="M212,-122.1061C212,-141.3391 212,-169 212,-169 212,-169 405.1614,-169 405.1614,-169"/>
<polygon fill="#000000" stroke="#000000" points="405.1614,-172.5001 415.1614,-169 405.1613,-165.5001 405.1614,-172.5001"/>
</g>
<!-- SharedModule -->
<g id="node8" class="node">
<title>SharedModule</title>
<polygon fill="#8dd3c7" stroke="#000000" points="122.4231,-122 119.4231,-126 98.4231,-126 95.4231,-122 23.5769,-122 23.5769,-86 122.4231,-86 122.4231,-122"/>
<text text-anchor="middle" x="73" y="-99.8" font-family="Times,serif" font-size="14.00" fill="#000000">SharedModule</text>
</g>
<!-- SharedModule&#45;&gt;AppModule -->
<g id="edge7" class="edge">
<title>SharedModule&#45;&gt;AppModule</title>
<path fill="none" stroke="#000000" d="M73,-122.2921C73,-144.2057 73,-178 73,-178 73,-178 405.1743,-178 405.1743,-178"/>
<polygon fill="#000000" stroke="#000000" points="405.1743,-181.5001 415.1743,-178 405.1742,-174.5001 405.1743,-181.5001"/>
</g>
</g>
</svg>
